<svg width="36" height="36" viewBox="0 0 36 36" fill="none" xmlns="http://www.w3.org/2000/svg">
<path d="M20.25 13.5C19.6533 13.5 19.081 13.2629 18.659 12.841C18.2371 12.419 18 11.8467 18 11.25C18 10.6533 18.2371 10.081 18.659 9.65901C19.081 9.23705 19.6533 9 20.25 9C20.8467 9 21.419 9.23705 21.841 9.65901C22.2629 10.081 22.5 10.6533 22.5 11.25C22.5 11.8467 22.2629 12.419 21.841 12.841C21.419 13.2629 20.8467 13.5 20.25 13.5Z" fill="#D8D8FF"/>
<path d="M28.5 3H7.5C6.30762 3.00356 5.1651 3.47881 4.32195 4.32195C3.47881 5.1651 3.00356 6.30762 3 7.5V20.79L8.82 14.97C9.67755 14.1538 10.8161 13.6986 12 13.6986C13.1839 13.6986 14.3225 14.1538 15.18 14.97L19.4865 19.3005L20.8185 17.9685C21.6639 17.1278 22.8077 16.6559 24 16.6559C25.1923 16.6559 26.3361 17.1278 27.1815 17.9685L33 23.79V7.5C32.9964 6.30762 32.5212 5.1651 31.6781 4.32195C30.8349 3.47881 29.6924 3.00356 28.5 3ZM20.25 13.5C19.6533 13.5 19.081 13.2629 18.659 12.841C18.2371 12.419 18 11.8467 18 11.25C18 10.6533 18.2371 10.081 18.659 9.65901C19.081 9.23705 19.6533 9 20.25 9C20.8467 9 21.419 9.23705 21.841 9.65901C22.263 10.081 22.5 10.6533 22.5 11.25C22.5 11.8467 22.263 12.419 21.841 12.841C21.419 13.2629 20.8467 13.5 20.25 13.5Z" fill="#B2B1FF"/>
<path d="M15.18 14.97C14.3225 14.1538 13.1839 13.6985 12 13.6985C10.8161 13.6985 9.67755 14.1538 8.82 14.97L3 20.79V28.5C3.00356 29.6924 3.47881 30.8349 4.32195 31.678C5.1651 32.5212 6.30762 32.9964 7.5 33H28.5C29.7225 33 30.8925 32.5005 31.74 31.62L15.18 14.97Z" fill="#5865F2"/>
<path d="M33 23.787L27.1815 17.9685C26.3361 17.1278 25.1923 16.6559 24 16.6559C22.8077 16.6559 21.6639 17.1278 20.8185 17.9685L19.4865 19.3005L31.734 31.614C32.547 30.7815 33.0015 29.664 33 28.5V23.787Z" fill="#D8D8FF"/>
</svg>
