<svg width="43" height="43" viewBox="0 0 43 43" fill="none" xmlns="http://www.w3.org/2000/svg">
<path d="M34.5344 15.4397C34.3553 12.1123 33.0033 8.95592 30.7181 6.53065C28.2718 4.08865 24.9565 2.7171 21.5 2.7171C18.0435 2.7171 14.7282 4.08865 12.2819 6.53065C9.99674 8.95592 8.64468 12.1123 8.46562 15.4397C8.10281 19.6456 10.105 23.2335 12.2012 26.5525C12.6984 27.3319 17.0925 34.3194 19.2156 37.7728C19.4561 38.1626 19.7921 38.4845 20.1919 38.7079C20.5917 38.9314 21.042 39.0489 21.5 39.0494C21.958 39.0489 22.4083 38.9314 22.8081 38.7079C23.2079 38.4845 23.5439 38.1626 23.7844 37.7728C25.9075 34.3194 30.3016 27.3319 30.7987 26.5525C32.895 23.2335 34.9375 19.6456 34.5344 15.4397Z" fill="#8C9EFF"/>
<path d="M23.7844 37.7728C25.9075 34.3194 30.3016 27.3319 30.7988 26.5525C32.895 23.2334 34.83 19.6456 34.5344 15.4397C34.3553 12.1123 33.0033 8.95589 30.7181 6.53063C29.5124 5.31192 28.0767 4.34468 26.4943 3.68497C24.912 3.02527 23.2144 2.68623 21.5 2.6875V38.9688C21.9505 38.9769 22.3958 38.8716 22.795 38.6626C23.1942 38.4537 23.5344 38.1477 23.7844 37.7728Z" fill="#5F7CF9"/>
<path d="M21.5 21.5C24.4685 21.5 26.875 19.0935 26.875 16.125C26.875 13.1565 24.4685 10.75 21.5 10.75C18.5315 10.75 16.125 13.1565 16.125 16.125C16.125 19.0935 18.5315 21.5 21.5 21.5Z" fill="#5F7CF9"/>
<path d="M26.875 16.125C26.875 14.6995 26.3087 13.3323 25.3007 12.3243C24.2927 11.3163 22.9255 10.75 21.5 10.75V21.5C22.9255 21.5 24.2927 20.9337 25.3007 19.9257C26.3087 18.9177 26.875 17.5505 26.875 16.125Z" fill="#4062ED"/>
</svg>
