<svg width="16" height="22" viewBox="0 0 16 22" fill="none" xmlns="http://www.w3.org/2000/svg">
<path d="M8.15997 9.86999C8.05997 9.85999 7.93997 9.85999 7.82997 9.86999C6.68217 9.83102 5.59461 9.34683 4.7976 8.51995C4.00059 7.69307 3.55671 6.58844 3.55997 5.43999C3.55997 2.98999 5.53997 0.999989 7.99997 0.999989C8.58238 0.989483 9.16116 1.0938 9.70326 1.30697C10.2454 1.52014 10.7402 1.838 11.1594 2.2424C11.5787 2.6468 11.9142 3.12982 12.1468 3.66388C12.3793 4.19794 12.5045 4.77258 12.515 5.35499C12.5255 5.9374 12.4212 6.51618 12.208 7.05828C11.9948 7.60038 11.677 8.09518 11.2726 8.51444C10.8682 8.9337 10.3851 9.26919 9.85108 9.50178C9.31702 9.73437 8.74238 9.85948 8.15997 9.86999V9.86999ZM3.15997 13.56C0.739971 15.18 0.739971 17.82 3.15997 19.43C5.90997 21.27 10.42 21.27 13.17 19.43C15.59 17.81 15.59 15.17 13.17 13.56C10.43 11.73 5.91997 11.73 3.15997 13.56V13.56Z" stroke="black" stroke-width="1.5" stroke-linecap="round" stroke-linejoin="round"/>
</svg>
