<svg xmlns="http://www.w3.org/2000/svg" width="16" height="16" id="share"><path d="M7.994 1a2.508 2.508 0 0 0-2.5 2.5c0 .02.005.04.006.06C3.435 4.51 1.994 6.585 1.994 9c0 .479.074.939.18 1.387A2.5 2.5 0 0 0 .994 12.5c0 1.375 1.125 2.5 2.5 2.5.667 0 1.271-.268 1.72-.697a5.962 5.962 0 0 0 2.78.697 5.97 5.97 0 0 0 2.781-.695c.45.428 1.054.695 1.72.695 1.374 0 2.5-1.125 2.5-2.5a2.5 2.5 0 0 0-1.177-2.111c.107-.448.176-.91.176-1.389a5.991 5.991 0 0 0-3.506-5.443c0-.02.006-.038.006-.057 0-1.375-1.125-2.5-2.5-2.5zm0 1c.834 0 1.5.666 1.5 1.5S8.828 5 7.994 5s-1.5-.666-1.5-1.5S7.16 2 7.994 2zM5.736 4.55c.4.852 1.26 1.45 2.258 1.45.997 0 1.858-.597 2.258-1.447A4.984 4.984 0 0 1 12.994 9c0 .358-.048.703-.119 1.04-.125-.02-.25-.04-.38-.04a2.508 2.508 0 0 0-2.5 2.5c0 .348.072.677.202.979A4.956 4.956 0 0 1 7.994 14a4.955 4.955 0 0 1-2.203-.52c.13-.302.203-.632.203-.98 0-1.375-1.125-2.5-2.5-2.5-.13 0-.254.02-.379.04A4.976 4.976 0 0 1 2.995 9c0-1.95 1.119-3.624 2.741-4.45zM3.494 11c.834 0 1.5.666 1.5 1.5s-.666 1.5-1.5 1.5-1.5-.666-1.5-1.5.666-1.5 1.5-1.5zm9 0c.834 0 1.5.666 1.5 1.5s-.666 1.5-1.5 1.5-1.5-.666-1.5-1.5.666-1.5 1.5-1.5z" color="#000" font-family="sans-serif" font-weight="400" overflow="visible" style="line-height:normal;text-indent:0;text-align:start;text-decoration-line:none;text-decoration-style:solid;text-decoration-color:#000;text-transform:none;block-progression:tb;white-space:normal;isolation:auto;mix-blend-mode:normal;solid-color:#000;solid-opacity:1"></path></svg>