<svg width="32" height="32" viewBox="0 0 32 32" fill="none" xmlns="http://www.w3.org/2000/svg">
<g clip-path="url(#clip0_1_685)">
<g filter="url(#filter0_dd_1_685)">
<path d="M1.40492 9.55953C2.43621 4.5663 5.60939 1.78524 10.559 0.945106C14.2179 0.324183 17.8781 0.31632 21.5309 0.962542C26.6272 1.86408 29.6909 4.80733 30.6669 9.87605C31.4209 13.7933 31.4328 17.7524 30.655 21.6659C29.6117 26.6246 26.3567 29.6854 21.4253 30.5225C17.7665 31.1433 14.1062 31.1512 10.4534 30.505C5.35713 29.6034 2.27982 26.5132 1.30389 21.4446C0.511376 17.5015 0.587631 13.5174 1.40492 9.55947V9.55953Z" fill="black"/>
</g>
<path d="M1.40492 9.55953C2.43621 4.5663 5.60939 1.78524 10.559 0.945106C14.2179 0.324183 17.8781 0.31632 21.5309 0.962542C26.6272 1.86408 29.6909 4.80733 30.6669 9.87605C31.4209 13.7933 31.4328 17.7524 30.655 21.6659C29.6117 26.6246 26.3567 29.6854 21.4253 30.5225C17.7665 31.1433 14.1062 31.1512 10.4534 30.505C5.35713 29.6034 2.27982 26.5132 1.30389 21.4446C0.511376 17.5015 0.587631 13.5174 1.40492 9.55947V9.55953Z" fill="#5865F2"/>
<path fill-rule="evenodd" clip-rule="evenodd" d="M20.3712 16.7047L20.3738 16.7072L15.2014 20.2109L15.2156 20.2123C15.2156 20.2123 13.3566 21.4615 12.9522 21.7434C12.5477 22.0254 12.951 21.7443 12.951 21.7443C12.7172 21.9327 12.5276 21.8403 12.5276 21.5383V12.9231H11.234V21.5726C11.234 22.4223 11.9199 23.1111 12.7659 23.1111C13.0961 23.1116 13.4176 23.0045 13.682 22.8059L22.3046 16.9539C22.3616 16.9203 22.4165 16.883 22.4689 16.8425L22.5311 16.8002L22.5274 16.7947C23.0072 16.3848 23.2239 15.7037 23.0245 15.0488C22.8785 14.5693 22.5399 14.2035 22.1233 14.0143L11.8016 8.27234L11.1744 9.40854L20.2391 14.4547C20.2391 14.4548 20.239 14.4549 20.2389 14.455C20.8294 14.7845 21.4353 15.125 21.4703 15.1542C21.5397 15.2118 21.5523 15.2401 21.5523 15.2401C21.7468 15.4706 21.7024 15.7956 21.4541 15.9652L20.3712 16.7047Z" fill="white"/>
</g>
<defs>
<filter id="filter0_dd_1_685" x="-10.2511" y="-6.52136" width="52.4865" height="52.5103" filterUnits="userSpaceOnUse" color-interpolation-filters="sRGB">
<feFlood flood-opacity="0" result="BackgroundImageFix"/>
<feColorMatrix in="SourceAlpha" type="matrix" values="0 0 0 0 0 0 0 0 0 0 0 0 0 0 0 0 0 0 127 0" result="hardAlpha"/>
<feOffset dy="5"/>
<feGaussianBlur stdDeviation="4"/>
<feColorMatrix type="matrix" values="0 0 0 0 0 0 0 0 0 0 0 0 0 0 0 0 0 0 0.078125 0"/>
<feBlend mode="normal" in2="BackgroundImageFix" result="effect1_dropShadow_1_685"/>
<feColorMatrix in="SourceAlpha" type="matrix" values="0 0 0 0 0 0 0 0 0 0 0 0 0 0 0 0 0 0 127 0" result="hardAlpha"/>
<feOffset dy="4"/>
<feGaussianBlur stdDeviation="5.5"/>
<feColorMatrix type="matrix" values="0 0 0 0 0 0 0 0 0 0 0 0 0 0 0 0 0 0 0.210824 0"/>
<feBlend mode="normal" in2="effect1_dropShadow_1_685" result="effect2_dropShadow_1_685"/>
<feBlend mode="normal" in="SourceGraphic" in2="effect2_dropShadow_1_685" result="shape"/>
</filter>
<clipPath id="clip0_1_685">
<rect width="32" height="32" fill="white"/>
</clipPath>
</defs>
</svg>
